<svg width="33" height="33" viewBox="0 0 33 33" fill="none" xmlns="http://www.w3.org/2000/svg">
<circle cx="16.5" cy="16.5" r="16" stroke="#5A3E9D"/>
<path fill-rule="evenodd" clip-rule="evenodd" d="M16.8224 10.0007C16.6282 9.99095 16.4306 10.0579 16.2789 10.2028C16.1997 10.2785 16.1411 10.3676 16.1033 10.4632L8.73199 18.1816C8.45226 18.4744 8.46294 18.9386 8.75583 19.2184C9.04872 19.4981 9.51292 19.4874 9.79265 19.1945L16.8225 11.8338L23.8524 19.1945C24.1321 19.4874 24.5963 19.4981 24.8892 19.2184C25.1821 18.9387 25.1927 18.4745 24.913 18.1816L17.5417 10.4632C17.5039 10.3676 17.4453 10.2785 17.3661 10.2028C17.2144 10.0579 17.0166 9.99088 16.8224 10.0007Z" fill="#5A3E9D"/>
</svg>
