<svg width="48" height="30" viewBox="0 0 48 30" fill="none" xmlns="http://www.w3.org/2000/svg">
<g clip-path="url(#clip0_0_45)">
<path d="M17.4935 3.22754H30.4592V26.9539H17.4935V3.22754Z" fill="#BDBDBD"/>
<path d="M18.3167 15.091C18.3167 10.2703 20.5393 5.99445 23.9556 3.22771C21.4449 1.21562 18.2756 0 14.8181 0C6.62681 0 0 6.74891 0 15.091C0 23.4328 6.62681 30.1819 14.8179 30.1819C18.2754 30.1819 21.4447 28.9663 23.9556 26.954C20.5393 24.2293 18.3167 19.9116 18.3167 15.091Z" fill="#828282"/>
<path d="M47.9524 15.091C47.9524 23.4328 41.3256 30.1819 33.1345 30.1819C29.677 30.1819 26.5076 28.9663 23.9968 26.954C27.4543 24.1875 29.6359 19.9116 29.6359 15.091C29.6359 10.2703 27.4131 5.99445 23.9968 3.22771C26.5075 1.21562 29.677 0 33.1345 0C41.3256 0 47.9526 6.79092 47.9526 15.091H47.9524Z" fill="#E0E0E0"/>
</g>
<defs>
<clipPath id="clip0_0_45">
<rect width="48" height="30" fill="white"/>
</clipPath>
</defs>
</svg>
