<svg width="48" height="16" viewBox="0 0 48 16" fill="none" xmlns="http://www.w3.org/2000/svg">
<path d="M34.8932 0.655137C33.7777 0.213018 32.5985 -0.00884013 31.4113 1.05892e-05C27.5719 1.05892e-05 24.8603 2.10373 24.8411 5.12358C24.8171 7.34214 26.768 8.59237 28.2438 9.33363C29.7579 10.0958 30.2643 10.576 30.2595 11.2573C30.2499 12.2935 29.05 12.7633 27.9342 12.7633C26.4008 12.7633 25.5634 12.531 24.2748 11.9489L23.7972 11.7062L23.2525 15.1828C24.186 15.6056 25.8681 15.9684 27.6055 15.9998C31.6872 15.9998 34.3556 13.9091 34.3868 10.6961C34.4204 8.92385 33.3646 7.58488 31.1425 6.47821C29.7915 5.76044 28.9541 5.28019 28.9541 4.55198C28.9541 3.90729 29.6715 3.21823 31.1713 3.21823C32.1695 3.19196 33.1614 3.39566 34.0821 3.81594L34.442 3.99081L34.9868 0.631647L34.8932 0.655137ZM44.8565 0.281898H41.8569C40.9235 0.281898 40.2204 0.561176 39.8124 1.56866L34.0437 15.7831H38.1255L38.9414 13.4523L43.923 13.4575C44.0406 14.003 44.4005 15.7831 44.4005 15.7831H48L44.8565 0.281898ZM19.3195 0.151394H23.2093L20.7761 15.6604H16.8911L19.3195 0.146174V0.151394ZM9.44498 8.69938L9.84812 10.8527L13.6492 0.281898H17.7693L11.6479 15.7622H7.53727L4.17777 2.65445C4.12336 2.43832 3.99558 2.25269 3.82023 2.13505C2.60937 1.4547 1.32639 0.938403 0 0.597715L0.052792 0.271456H6.31345C7.16293 0.307997 7.84682 0.597716 8.07479 1.58432L9.44258 8.70721V8.69938H9.44498ZM40.0572 10.2811L41.6074 5.94314C41.5882 5.99013 41.9265 5.04789 42.1233 4.46584L42.3896 5.80481L43.2895 10.2785H40.0548V10.2811H40.0572Z" fill="#E0E0E0"/>
</svg>
