<svg width="33" height="33" viewBox="0 0 33 33" fill="none" xmlns="http://www.w3.org/2000/svg">
<circle cx="16.5" cy="16.5" r="16" stroke="#4A289B"/>
<path fill-rule="evenodd" clip-rule="evenodd" d="M22.5324 17.0934C22.5422 16.8993 22.4752 16.7016 22.3303 16.55C22.2547 16.4707 22.1655 16.4122 22.0699 16.3744L14.3516 9.00305C14.0587 8.72332 13.5945 8.734 13.3147 9.02689C13.035 9.31978 13.0457 9.78398 13.3386 10.0637L20.6993 17.0936L13.3386 24.1234C13.0457 24.4031 13.035 24.8673 13.3147 25.1602C13.5945 25.4531 14.0587 25.4638 14.3515 25.1841L22.0699 17.8127C22.1655 17.775 22.2547 17.7164 22.3303 17.6372C22.4753 17.4854 22.5422 17.2877 22.5324 17.0934Z" fill="#4A289B"/>
</svg>
