<svg width="33" height="33" viewBox="0 0 33 33" fill="none" xmlns="http://www.w3.org/2000/svg">
<circle cx="16.5" cy="16.5" r="16" stroke="#4A289B"/>
<path fill-rule="evenodd" clip-rule="evenodd" d="M22.5324 17.0934C22.5421 16.8992 22.4751 16.7016 22.3303 16.5499C22.2546 16.4707 22.1655 16.4121 22.0699 16.3744L14.3515 9.00302C14.0586 8.7233 13.5944 8.73397 13.3147 9.02686C13.035 9.31975 13.0457 9.78395 13.3385 10.0637L20.6993 17.0935L13.3385 24.1234C13.0456 24.4031 13.035 24.8673 13.3147 25.1602C13.5944 25.4531 14.0586 25.4638 14.3515 25.1841L22.0698 17.8127C22.1655 17.775 22.2546 17.7164 22.3303 17.6371C22.4752 17.4854 22.5422 17.2877 22.5324 17.0934Z" fill="#4A289B"/>
</svg>
